<svg width="170" height="17" viewBox="0 0 170 17" fill="none" xmlns="http://www.w3.org/2000/svg">
<path d="M32.5107 10.9106C32.5107 11.6017 32.2601 12.1406 31.7588 12.5273C31.2575 12.9141 30.5771 13.1074 29.7178 13.1074C28.7868 13.1074 28.0706 12.9875 27.5693 12.7476V11.8667C27.8916 12.0028 28.2425 12.1102 28.6221 12.189C29.0016 12.2677 29.3776 12.3071 29.75 12.3071C30.3587 12.3071 30.8171 12.1925 31.125 11.9634C31.4329 11.7306 31.5869 11.4084 31.5869 10.9966C31.5869 10.7244 31.5314 10.5024 31.4204 10.3306C31.313 10.1551 31.1304 9.99398 30.8726 9.84717C30.6183 9.70036 30.2298 9.53385 29.707 9.34766C28.9766 9.08626 28.4538 8.77653 28.1387 8.41846C27.8271 8.06038 27.6714 7.5931 27.6714 7.0166C27.6714 6.41146 27.8988 5.92985 28.3535 5.57178C28.8083 5.2137 29.4098 5.03467 30.1582 5.03467C30.9388 5.03467 31.6567 5.1779 32.312 5.46436L32.0273 6.25928C31.3792 5.98714 30.749 5.85107 30.1367 5.85107C29.6533 5.85107 29.2756 5.95492 29.0034 6.1626C28.7313 6.37028 28.5952 6.65853 28.5952 7.02734C28.5952 7.29948 28.6453 7.52327 28.7456 7.69873C28.8459 7.87061 29.0142 8.02995 29.2505 8.17676C29.4904 8.31999 29.8556 8.47933 30.3462 8.65479C31.1698 8.9484 31.7355 9.26351 32.0435 9.6001C32.355 9.93669 32.5107 10.3735 32.5107 10.9106ZM38.5479 10.9106C38.5479 11.6017 38.2972 12.1406 37.7959 12.5273C37.2946 12.9141 36.6143 13.1074 35.7549 13.1074C34.8239 13.1074 34.1077 12.9875 33.6064 12.7476V11.8667C33.9287 12.0028 34.2796 12.1102 34.6592 12.189C35.0387 12.2677 35.4147 12.3071 35.7871 12.3071C36.3958 12.3071 36.8542 12.1925 37.1621 11.9634C37.4701 11.7306 37.624 11.4084 37.624 10.9966C37.624 10.7244 37.5685 10.5024 37.4575 10.3306C37.3501 10.1551 37.1675 9.99398 36.9097 9.84717C36.6554 9.70036 36.2669 9.53385 35.7441 9.34766C35.0137 9.08626 34.4909 8.77653 34.1758 8.41846C33.8643 8.06038 33.7085 7.5931 33.7085 7.0166C33.7085 6.41146 33.9359 5.92985 34.3906 5.57178C34.8454 5.2137 35.4469 5.03467 36.1953 5.03467C36.9759 5.03467 37.6938 5.1779 38.3491 5.46436L38.0645 6.25928C37.4163 5.98714 36.7861 5.85107 36.1738 5.85107C35.6904 5.85107 35.3127 5.95492 35.0405 6.1626C34.7684 6.37028 34.6323 6.65853 34.6323 7.02734C34.6323 7.29948 34.6825 7.52327 34.7827 7.69873C34.883 7.87061 35.0513 8.02995 35.2876 8.17676C35.5275 8.31999 35.8927 8.47933 36.3833 8.65479C37.2069 8.9484 37.7726 9.26351 38.0806 9.6001C38.3921 9.93669 38.5479 10.3735 38.5479 10.9106ZM40.1538 13V5.14746H41.0669V12.1729H44.5312V13H40.1538ZM53.1572 10.9106C53.1572 11.6017 52.9066 12.1406 52.4053 12.5273C51.904 12.9141 51.2236 13.1074 50.3643 13.1074C49.4333 13.1074 48.7171 12.9875 48.2158 12.7476V11.8667C48.5381 12.0028 48.889 12.1102 49.2686 12.189C49.6481 12.2677 50.0241 12.3071 50.3965 12.3071C51.0052 12.3071 51.4635 12.1925 51.7715 11.9634C52.0794 11.7306 52.2334 11.4084 52.2334 10.9966C52.2334 10.7244 52.1779 10.5024 52.0669 10.3306C51.9595 10.1551 51.7769 9.99398 51.519 9.84717C51.2648 9.70036 50.8763 9.53385 50.3535 9.34766C49.623 9.08626 49.1003 8.77653 48.7852 8.41846C48.4736 8.06038 48.3179 7.5931 48.3179 7.0166C48.3179 6.41146 48.5452 5.92985 49 5.57178C49.4548 5.2137 50.0563 5.03467 50.8047 5.03467C51.5853 5.03467 52.3032 5.1779 52.9585 5.46436L52.6738 6.25928C52.0257 5.98714 51.3955 5.85107 50.7832 5.85107C50.2998 5.85107 49.922 5.95492 49.6499 6.1626C49.3778 6.37028 49.2417 6.65853 49.2417 7.02734C49.2417 7.29948 49.2918 7.52327 49.3921 7.69873C49.4924 7.87061 49.6606 8.02995 49.897 8.17676C50.1369 8.31999 50.5021 8.47933 50.9927 8.65479C51.8162 8.9484 52.382 9.26351 52.6899 9.6001C53.0015 9.93669 53.1572 10.3735 53.1572 10.9106ZM59.1406 13H54.7632V5.14746H59.1406V5.9585H55.6763V8.48828H58.9312V9.29395H55.6763V12.1836H59.1406V13ZM64.2485 5.85107C63.3856 5.85107 62.7035 6.13932 62.2021 6.71582C61.7044 7.28874 61.4556 8.07471 61.4556 9.07373C61.4556 10.1014 61.6955 10.8963 62.1753 11.4585C62.6587 12.0171 63.3462 12.2964 64.2378 12.2964C64.7856 12.2964 65.4105 12.1979 66.1123 12.001V12.8013C65.568 13.0054 64.8966 13.1074 64.0981 13.1074C62.9416 13.1074 62.0482 12.7565 61.418 12.0547C60.7913 11.3529 60.478 10.3556 60.478 9.06299C60.478 8.25374 60.6284 7.54476 60.9292 6.93604C61.2336 6.32731 61.6704 5.85824 62.2397 5.52881C62.8127 5.19938 63.4858 5.03467 64.2593 5.03467C65.0828 5.03467 65.8026 5.18506 66.4185 5.48584L66.0317 6.27002C65.4373 5.99072 64.8429 5.85107 64.2485 5.85107ZM73.7554 5.14746V10.2285C73.7554 11.1237 73.485 11.8273 72.9443 12.3394C72.4036 12.8514 71.6606 13.1074 70.7153 13.1074C69.77 13.1074 69.0378 12.8496 68.5186 12.334C68.0029 11.8184 67.7451 11.1094 67.7451 10.207V5.14746H68.6582V10.2715C68.6582 10.9268 68.8372 11.4299 69.1953 11.7808C69.5534 12.1317 70.0798 12.3071 70.7744 12.3071C71.4368 12.3071 71.9471 12.1317 72.3052 11.7808C72.6632 11.4263 72.8423 10.9196 72.8423 10.2607V5.14746H73.7554ZM76.7524 9.73438V13H75.8394V5.14746H77.9932C78.9564 5.14746 79.6672 5.33187 80.1255 5.70068C80.5874 6.0695 80.8184 6.62451 80.8184 7.36572C80.8184 8.40413 80.292 9.10596 79.2393 9.47119L81.3716 13H80.292L78.3906 9.73438H76.7524ZM76.7524 8.9502H78.0039C78.6484 8.9502 79.1211 8.82308 79.4219 8.56885C79.7227 8.31104 79.873 7.92611 79.873 7.41406C79.873 6.89486 79.7191 6.52067 79.4111 6.2915C79.1068 6.06234 78.6162 5.94775 77.9395 5.94775H76.7524V8.9502ZM87.0166 13H82.6392V5.14746H87.0166V5.9585H83.5522V8.48828H86.8071V9.29395H83.5522V12.1836H87.0166V13ZM95.0303 8.99854C95.0303 10.2948 94.6776 11.2866 93.9722 11.9741C93.2703 12.658 92.2588 13 90.9375 13H88.7622V5.14746H91.1685C92.3895 5.14746 93.3384 5.48584 94.0151 6.1626C94.6919 6.83936 95.0303 7.78467 95.0303 8.99854ZM94.0635 9.03076C94.0635 8.00667 93.8057 7.23503 93.29 6.71582C92.778 6.19661 92.0153 5.93701 91.002 5.93701H89.6753V12.2104H90.7871C91.8757 12.2104 92.6938 11.9437 93.2417 11.4102C93.7896 10.873 94.0635 10.0799 94.0635 9.03076ZM103.006 5.85107C102.143 5.85107 101.461 6.13932 100.96 6.71582C100.462 7.28874 100.213 8.07471 100.213 9.07373C100.213 10.1014 100.453 10.8963 100.933 11.4585C101.417 12.0171 102.104 12.2964 102.996 12.2964C103.543 12.2964 104.168 12.1979 104.87 12.001V12.8013C104.326 13.0054 103.654 13.1074 102.856 13.1074C101.699 13.1074 100.806 12.7565 100.176 12.0547C99.5492 11.3529 99.2358 10.3556 99.2358 9.06299C99.2358 8.25374 99.3862 7.54476 99.687 6.93604C99.9914 6.32731 100.428 5.85824 100.998 5.52881C101.57 5.19938 102.244 5.03467 103.017 5.03467C103.841 5.03467 104.56 5.18506 105.176 5.48584L104.79 6.27002C104.195 5.99072 103.601 5.85107 103.006 5.85107ZM113.399 9.06299C113.399 10.3198 113.081 11.3081 112.443 12.0278C111.81 12.7476 110.927 13.1074 109.795 13.1074C108.639 13.1074 107.745 12.7547 107.115 12.0493C106.489 11.3403 106.175 10.3413 106.175 9.05225C106.175 7.77393 106.49 6.78385 107.121 6.08203C107.751 5.37663 108.646 5.02393 109.806 5.02393C110.934 5.02393 111.815 5.382 112.449 6.09814C113.083 6.81429 113.399 7.80257 113.399 9.06299ZM107.142 9.06299C107.142 10.1265 107.368 10.9339 107.819 11.4854C108.274 12.0332 108.932 12.3071 109.795 12.3071C110.666 12.3071 111.323 12.0332 111.767 11.4854C112.211 10.9375 112.433 10.13 112.433 9.06299C112.433 8.00667 112.211 7.20638 111.767 6.66211C111.326 6.11426 110.673 5.84033 109.806 5.84033C108.936 5.84033 108.274 6.11605 107.819 6.66748C107.368 7.21533 107.142 8.01383 107.142 9.06299ZM121.29 13H120.248L115.956 6.40967H115.913C115.97 7.18311 115.999 7.89209 115.999 8.53662V13H115.156V5.14746H116.187L120.468 11.7109H120.511C120.504 11.6143 120.487 11.3045 120.462 10.7817C120.437 10.2554 120.428 9.87939 120.436 9.65381V5.14746H121.29V13ZM129.583 13H128.541L124.249 6.40967H124.206C124.263 7.18311 124.292 7.89209 124.292 8.53662V13H123.449V5.14746H124.48L128.761 11.7109H128.804C128.797 11.6143 128.78 11.3045 128.755 10.7817C128.73 10.2554 128.721 9.87939 128.729 9.65381V5.14746H129.583V13ZM136.119 13H131.742V5.14746H136.119V5.9585H132.655V8.48828H135.91V9.29395H132.655V12.1836H136.119V13ZM141.227 5.85107C140.364 5.85107 139.682 6.13932 139.181 6.71582C138.683 7.28874 138.434 8.07471 138.434 9.07373C138.434 10.1014 138.674 10.8963 139.154 11.4585C139.637 12.0171 140.325 12.2964 141.216 12.2964C141.764 12.2964 142.389 12.1979 143.091 12.001V12.8013C142.547 13.0054 141.875 13.1074 141.077 13.1074C139.92 13.1074 139.027 12.7565 138.396 12.0547C137.77 11.3529 137.457 10.3556 137.457 9.06299C137.457 8.25374 137.607 7.54476 137.908 6.93604C138.212 6.32731 138.649 5.85824 139.218 5.52881C139.791 5.19938 140.464 5.03467 141.238 5.03467C142.061 5.03467 142.781 5.18506 143.397 5.48584L143.01 6.27002C142.416 5.99072 141.821 5.85107 141.227 5.85107ZM147.221 13H146.308V5.9585H143.821V5.14746H149.708V5.9585H147.221V13ZM150.895 13V5.14746H151.808V13H150.895ZM160.783 9.06299C160.783 10.3198 160.465 11.3081 159.827 12.0278C159.193 12.7476 158.311 13.1074 157.179 13.1074C156.023 13.1074 155.129 12.7547 154.499 12.0493C153.872 11.3403 153.559 10.3413 153.559 9.05225C153.559 7.77393 153.874 6.78385 154.504 6.08203C155.135 5.37663 156.03 5.02393 157.19 5.02393C158.318 5.02393 159.199 5.382 159.833 6.09814C160.466 6.81429 160.783 7.80257 160.783 9.06299ZM154.526 9.06299C154.526 10.1265 154.751 10.9339 155.203 11.4854C155.657 12.0332 156.316 12.3071 157.179 12.3071C158.049 12.3071 158.706 12.0332 159.15 11.4854C159.594 10.9375 159.816 10.13 159.816 9.06299C159.816 8.00667 159.594 7.20638 159.15 6.66211C158.71 6.11426 158.056 5.84033 157.19 5.84033C156.32 5.84033 155.657 6.11605 155.203 6.66748C154.751 7.21533 154.526 8.01383 154.526 9.06299ZM168.673 13H167.631L163.34 6.40967H163.297C163.354 7.18311 163.383 7.89209 163.383 8.53662V13H162.54V5.14746H163.571L167.852 11.7109H167.895C167.887 11.6143 167.871 11.3045 167.846 10.7817C167.821 10.2554 167.812 9.87939 167.819 9.65381V5.14746H168.673V13Z" fill="#787878"/>
<g clip-path="url(#clip0_7_30)">
<path d="M7.19001 16.967C7.0668 17.0109 6.93222 17.0109 6.80901 16.967C-0.170991 14.498 -0.0619908 8.64901 0.0180092 4.37701C0.0260092 3.91801 0.0340092 3.48401 0.0340092 3.06501C0.0326765 2.9087 0.0934264 2.75825 0.202921 2.6467C0.312415 2.53514 0.461704 2.47159 0.618009 2.47001C3.11201 2.47001 5.01001 1.73801 6.59301 0.16801C6.64633 0.114523 6.70969 0.0720851 6.77944 0.043129C6.8492 0.0141728 6.92398 -0.000732422 6.99951 -0.000732422C7.07504 -0.000732422 7.14982 0.0141728 7.21957 0.043129C7.28933 0.0720851 7.35269 0.114523 7.40601 0.16801C8.98901 1.73801 10.888 2.47001 13.383 2.47001C13.5391 2.47186 13.6882 2.53552 13.7975 2.64705C13.9067 2.75858 13.9673 2.90887 13.966 3.06501C13.966 3.48501 13.974 3.91801 13.983 4.37701C14.063 8.64801 14.172 14.498 7.19101 16.967H7.19001ZM12.817 4.40001C12.812 4.14201 12.807 3.89201 12.805 3.64801C10.467 3.54701 8.59901 2.82501 7.00001 1.40301C5.40001 2.82501 3.53301 3.54701 1.19701 3.64801L1.18401 4.40001C1.10401 8.69401 1.01401 13.555 7.00001 15.774C12.987 13.554 12.897 8.69401 12.816 4.40001H12.817ZM9.83301 6.43301C9.9426 6.54575 10.0039 6.69678 10.0039 6.85401C10.0039 7.01124 9.9426 7.16227 9.83301 7.27501L6.60601 10.567C6.55249 10.6223 6.48839 10.6663 6.41752 10.6963C6.34666 10.7264 6.27048 10.7419 6.19351 10.7419C6.11654 10.7419 6.04036 10.7264 5.96949 10.6963C5.89863 10.6663 5.83453 10.6223 5.78101 10.567L4.16701 8.92001C4.05718 8.80739 3.99571 8.65631 3.99571 8.49901C3.99571 8.3417 4.05718 8.19063 4.16701 8.07801C4.2206 8.02282 4.28473 7.97895 4.35558 7.94899C4.42643 7.91903 4.50258 7.9036 4.57951 7.9036C4.65644 7.9036 4.73258 7.91903 4.80344 7.94899C4.87429 7.97895 4.93842 8.02282 4.99201 8.07801L6.19301 9.30401L9.00801 6.43201C9.0616 6.37682 9.12573 6.33295 9.19658 6.30299C9.26744 6.27303 9.34358 6.2576 9.42051 6.2576C9.49744 6.2576 9.57358 6.27303 9.64444 6.30299C9.71529 6.33295 9.77942 6.37682 9.83301 6.43201V6.43301Z" fill="#787878"/>
</g>
<defs>
<clipPath id="clip0_7_30">
<rect width="14" height="17" fill="white"/>
</clipPath>
</defs>
</svg>
